<svg xmlns="http://www.w3.org/2000/svg" viewBox="0 0 48 48"> <path d="M46.719 40.014h-45.3c-.6 0-1-.4-1-1s.4-1 1-1h45.3c.6 0 1 .4 1 1 0 .5-.5 1-1 1z" fill="#f39b10"></path> <path d="M11.019 40.014h-8c-.6 0-1-.4-1-1v-22.1c0-.6.4-1 1-1h8c.6 0 1 .4 1 1v22.1c0 .5-.5 1-1 1zm-7-2h6v-20.1h-6v20.1z" fill="#f39b10"></path> <path d="M19.019 40.014h-8c-.6 0-1-.4-1-1v-32c0-.6.4-1 1-1h8c.6 0 1 .4 1 1v32c0 .5-.4 1-1 1zm-7-2h6v-30h-6v30zm25 2c-.4 0-.8-.3-1-.7l-9.4-31.5c-.2-.5.1-1.1.7-1.2l6.9-2.1c.3-.1.5 0 .8.1.2.1.4.3.5.6l9.4 31.4c.1.3 0 .5-.1.8-.1.2-.3.4-.6.5l-6.9 2.1h-.3zm-8.2-31.8l8.9 29.6 5-1.5-8.9-29.6-5 1.5z" fill="#f39b10"></path> <path d="M28.819 40.014h-9.8c-.6 0-1-.4-1-1v-26c0-.6.4-1 1-1h9.8c.6 0 1 .4 1 1v26c0 .5-.4 1-1 1zm-8.8-2h7.8v-24h-7.8v24z" fill="#f39b10"></path> <path d="M23.919 20.714c-1.4 0-2.5-1.1-2.5-2.5s1.1-2.5 2.5-2.5 2.5 1.1 2.5 2.5-1.1 2.5-2.5 2.5zm0-3c-.3 0-.5.2-.5.5 0 .5 1 .5 1 0 0-.3-.2-.5-.5-.5z" fill="#f39b10"></path> <path fill="none" d="M0 0h48v48H0z"></path> </svg>