<svg xmlns="http://www.w3.org/2000/svg" viewBox="0 0 48 48"> <path d="M10.3 44.8C9 44.8 8 43.7 8 42.3v-4.9h-.7c-3.9 0-7.3-3.2-7.3-7.1v-10c0-3.8 3.3-7.1 7.3-7.1H31c3.9 0 7.1 3.2 7.1 7.1v10c0 3.9-3.2 7.1-7.1 7.1H19l-7 6.7c-.5.5-1.1.7-1.7.7zm-3-29.5c-2.8 0-5.3 2.3-5.3 5.1v10c0 2.8 2.4 5.1 5.3 5.1H9c.6 0 1 .4 1 1v5.9c0 .5.4.5.6.4l7.3-7c.2-.2.4-.3.7-.3h12.3c2.8 0 5.1-2.3 5.1-5.1v-10c0-2.8-2.3-5.1-5.1-5.1H7.3z" fill="#f39b10"></path> <path d="M41.4 25.3c-.5 0-.9-.4-1-.9-.1-.6.3-1 .9-1.1 2.6-.3 4.7-2.6 4.7-5.1v-7.8c0-2.8-2.5-5.2-5.4-5.2H20.8c-2.6 0-4.6 1.9-4.8 4.7-.1.6-.5 1-1.1.9-.5-.1-1-.5-.9-1.1.4-3.8 3.2-6.5 6.8-6.5h19.7c4 0 7.4 3.3 7.4 7.2v7.8c0 3.6-2.8 6.7-6.5 7.1.1 0 0 0 0 0zm-12.5 4H9c-.6 0-1-.4-1-1s.4-1 1-1h19.8c.6 0 1 .4 1 1 .1.6-.4 1-.9 1zm0-6H9c-.6 0-1-.4-1-1s.4-1 1-1h19.8c.6 0 1 .4 1 1 .1.5-.4 1-.9 1z" fill="#f39b10"></path> </svg>