<svg xmlns="http://www.w3.org/2000/svg" viewBox="0 0 48 48"> <path d="M23.8 27.775c-1 0-2-.4-2.8-1.1l-15.9-14.2c-.4-.4-.4-1-.1-1.4.4-.4 1-.4 1.4-.1l15.9 14.3c.8.7 2.1.7 3 0l15.8-14.3c.4-.4 1-.3 1.4.1.4.4.3 1-.1 1.4l-15.8 14.2c-.8.8-1.8 1.1-2.8 1.1zm18 9.5c-.2 0-.5-.1-.6-.2l-10.6-8.8c-.4-.4-.5-1-.1-1.4.4-.4 1-.5 1.4-.1l10.6 8.8c.4.4.5 1 .1 1.4-.2.2-.5.3-.8.3zm-36 0c-.3 0-.6-.1-.8-.4-.4-.4-.3-1.1.1-1.4l10.6-8.8c.4-.4 1.1-.3 1.4.1.4.4.3 1.1-.1 1.4l-10.6 8.9c-.2.1-.4.2-.6.2z" fill="#f39b10"></path> <path d="M42.3 41.975H5.7c-3.2 0-5.7-2.4-5.7-5.6v-24.8c0-3.1 2.5-5.6 5.7-5.6h36.6c3.1 0 5.7 2.5 5.7 5.6v24.8c0 3.1-2.6 5.6-5.7 5.6zm-36.6-34c-2.1 0-3.7 1.6-3.7 3.6v24.8c0 2 1.6 3.6 3.7 3.6h36.6c2.1 0 3.7-1.6 3.7-3.6v-24.8c0-2-1.6-3.6-3.7-3.6H5.7z" fill="#f39b10"></path> <path fill="none" d="M0 0h48v48H0z"></path> </svg>