<svg xmlns="http://www.w3.org/2000/svg" viewBox="0 0 48 48"> <path d="M43 33.967c-.6 0-1-.4-1-1v-22.6c0-.2-.2-.4-.4-.4H6.4c-.2 0-.4.2-.4.4v22.6c0 .6-.4 1-1 1s-1-.4-1-1v-22.6c0-1.3 1.1-2.4 2.4-2.4h35.2c1.4 0 2.4 1.1 2.4 2.4v22.6c0 .6-.4 1-1 1zm2.4 8.1H2.6c-1.4 0-2.6-1.2-2.6-2.6v-2.4c0-.6.4-1 1-1h20.5c.6 0 1 .4 1 1v.6l3.1-.1-.1-.5c0-.6.4-1 1-1H47c.6 0 1 .4 1 1v2.4c0 1.4-1.2 2.6-2.6 2.6zm-43.4-4v1.4c0 .3.3.6.6.6h42.8c.3 0 .6-.3.6-.6v-1.4H27.4c-.2.8-.9 1.5-1.8 1.5h-3.2c-.9 0-1.6-.6-1.8-1.5H2z" fill="#f39b10"></path> <path d="M12.3 23.667c-1.3 0-2.3-1-2.3-2.3s1-2.3 2.3-2.3 2.3 1 2.3 2.3-1 2.3-2.3 2.3zm0-2.6c-.2 0-.3.1-.3.3 0 .3.6.3.6 0 0-.2-.1-.3-.3-.3zm7.8-2.3c-1.3 0-2.3-1-2.3-2.3s1-2.3 2.3-2.3 2.3 1 2.3 2.3-1.1 2.3-2.3 2.3zm0-2.6c-.2 0-.3.1-.3.3 0 .3.6.3.6 0 0-.2-.2-.3-.3-.3zm7.7 14.5c-1.3 0-2.3-1-2.3-2.3 0-1.3 1-2.3 2.3-2.3 1.3 0 2.3 1 2.3 2.3.1 1.3-1 2.3-2.3 2.3zm0-2.6c-.2 0-.3.1-.3.3 0 .3.6.3.6 0 .1-.2-.1-.3-.3-.3zm7.8-5.8c-1.3 0-2.3-1-2.3-2.3s1-2.3 2.3-2.3c1.3 0 2.3 1 2.3 2.3s-1 2.3-2.3 2.3zm0-2.6c-.2 0-.3.1-.3.3 0 .3.6.3.6 0 0-.2-.1-.3-.3-.3z" fill="#f39b10"></path> <path d="M13.4 21.667c-.3 0-.7-.2-.8-.5-.3-.5-.2-1.1.3-1.4l5.3-3.4c.5-.3 1.1-.2 1.4.3.3.5.2 1.1-.3 1.4l-5.3 3.4c-.2.2-.4.2-.6.2z" fill="#f39b10"></path> <path d="M27.1 28.267c-.3 0-.6-.2-.8-.5l-6.3-9.7c-.3-.5-.2-1.1.3-1.4.5-.3 1.1-.2 1.4.3l6.3 9.7c.3.5.2 1.1-.3 1.4-.2.1-.4.2-.6.2z" fill="#f39b10"></path> <path d="M28.7 28.367c-.2 0-.5-.1-.7-.3-.4-.4-.4-1-.1-1.4l6-6.4c.4-.4 1-.4 1.4-.1.4.4.4 1 .1 1.4l-6 6.4c-.1.3-.4.4-.7.4z" fill="#f39b10"></path> <path fill="none" d="M0 0h48v48H0z"></path> </svg>