<svg xmlns="http://www.w3.org/2000/svg" viewBox="0 0 48 48" id="about-us"> <path d="M31.8 41.3H2.2c-1.2 0-2.1-1-2.1-2.2V35c0-.9.5-1.7 1.4-2 8.8-3.5 10.4-4.9 10.7-5.4v-1.1c-1-1.1-1.8-2.6-2.3-4.3-.6-.6-1.1-1.4-1.2-2.2-.1-.9.1-1.8.6-2.5v-3.4c0-4.6 2.9-7.4 7.8-7.4 5 0 7.8 2.7 7.8 7.4v3.4c.5.7.7 1.6.6 2.5-.1.9-.5 1.7-1.2 2.2-.5 1.7-1.3 3.2-2.3 4.3v1.1c.3.5 1.9 1.9 10.7 5.4.8.3 1.4 1.1 1.4 2v4.1c-.1 1.2-1.1 2.2-2.3 2.2zM17 8.7c-3.8 0-5.8 1.9-5.8 5.4v3.7c0 .2-.1.4-.2.6-.3.4-.4.8-.4 1.3.1.5.3.9.7 1.1.2.1.3.3.4.5.5 1.7 1.2 3.1 2.2 4.1.2.2.3.4.3.7V28c-.5 1.3-2.2 3-12.1 6.9L2 39.1c0 .1.1.2.1.2h29.7c.1 0 .1-.1.1-.2V35C22 31 20.3 29.3 20 28.1v-1.9c0-.3.1-.5.3-.7 1-1 1.7-2.4 2.2-4.1.1-.2.2-.4.4-.5.4-.3.6-.7.7-1.1.1-.5-.1-.9-.4-1.3-.1-.2-.2-.4-.2-.6v-3.7c-.2-3.7-2.1-5.5-6-5.5z" fill="#f39b10"></path> <path d="M45.9 41.3h-8.8c-.6 0-1-.4-1-1s.4-1 1-1h8.8l.1-3.8c-2.2-.9-4.5-1.3-6.3-1.7-2.8-.5-4.6-.9-5-2.2v-2.5c0-.6.4-1 1-1 2.6 0 4.2-.5 5.2-.8-1.4-2.4-1.9-7.1-2.1-8.7 0-2.9-1.6-5.4-4.1-6.6-2.3-1.1-4.8-.8-6.6.7-.4.3-1.1.3-1.4-.2-.3-.4-.3-1.1.2-1.4 2.5-2 5.8-2.3 8.8-.9 3.2 1.5 5.2 4.7 5.2 8.3.3 3.5 1.2 7.7 2.2 8.2.3.2.5.5.5.8 0 .3-.1.7-.4.9-.2.2-2.1 1.6-6.4 1.8v.8c.4.2 2.2.6 3.5.8 1.9.4 4.3.8 6.6 1.7.8.3 1.3 1.1 1.3 1.9v3.8c-.2 1.2-1.2 2.1-2.3 2.1z" fill="#f39b10"></path> </svg>